<svg version="1.1" id="Layer_1" xmlns="http://www.w3.org/2000/svg" xmlns:xlink="http://www.w3.org/1999/xlink" x="0px" y="0px"
	 width="100%" viewBox="0 0 1375 921" enable-background="new 0 0 1375 921" xml:space="preserve">
<path fill="#FFFFFF" opacity="0.000000" stroke="none" 
	d="
M874.000000,922.000000 
	C582.666687,922.000000 291.833344,922.000000 1.000000,922.000000 
	C1.000000,615.000000 1.000000,308.000000 1.000000,1.000000 
	C459.333344,1.000000 917.666687,1.000000 1376.000000,1.000000 
	C1376.000000,308.000000 1376.000000,615.000000 1376.000000,922.000000 
	C1208.833374,922.000000 1041.666626,922.000000 874.000000,922.000000 
M1276.764648,79.712036 
	C1265.214233,79.477440 1253.483887,77.851372 1242.153564,79.317619 
	C1222.651245,81.841423 1205.808472,90.604485 1193.712158,106.781349 
	C1184.065918,119.681717 1174.693115,132.787125 1165.245972,145.835602 
	C1141.089966,179.199890 1116.945435,212.572525 1092.824585,245.962280 
	C1074.925903,270.738922 1056.860229,295.399048 1039.269043,320.392609 
	C1026.870361,338.008545 1027.100342,358.293213 1038.743774,376.402679 
	C1046.611206,388.639221 1058.020020,396.233643 1070.879272,402.266510 
	C1098.028687,415.003601 1125.179077,415.576263 1152.375610,402.667450 
	C1165.899658,396.248291 1174.918701,385.173676 1183.493530,373.239960 
	C1232.337280,305.263733 1281.655151,237.628159 1330.460815,169.624832 
	C1342.275635,153.162720 1343.397217,135.088272 1333.471313,117.099152 
	C1321.344482,95.120827 1300.331055,86.134865 1276.764648,79.712036 
M678.959839,209.465759 
	C687.929016,197.077362 697.075073,184.812424 705.827820,172.272919 
	C720.554260,151.175323 718.486572,125.359764 700.320374,107.062500 
	C684.332520,90.959251 664.333069,82.376801 642.057373,80.545433 
	C613.138489,78.167923 586.976318,85.695999 569.133667,110.072044 
	C517.961365,179.982025 467.412109,250.348755 416.743225,320.626251 
	C401.132690,342.277924 403.479218,368.345001 422.136841,387.470703 
	C430.697296,396.245972 441.153046,401.946869 452.351044,406.352081 
	C484.727417,419.088593 515.534241,416.658203 542.900879,394.290741 
	C551.197083,387.509979 557.221680,377.764923 563.651550,368.916046 
	C602.068298,316.046326 640.299255,263.041656 678.959839,209.465759 
M120.021011,295.494415 
	C114.152908,303.563019 108.366844,311.692780 102.401573,319.688904 
	C83.434792,345.112885 90.101974,375.362885 113.827225,393.287079 
	C131.922653,406.958008 152.614365,414.623535 175.613495,413.701416 
	C202.627533,412.618286 225.186691,402.751434 241.081512,379.588440 
	C253.966843,360.811066 267.730438,342.636902 281.075836,324.174500 
	C317.411804,273.906158 353.829865,223.696655 390.014771,173.319748 
	C406.032288,151.020081 403.821777,125.013222 384.161957,105.901039 
	C368.455719,90.632317 348.984100,82.338684 327.416382,80.579025 
	C297.730377,78.157013 271.494263,86.166138 253.150238,111.381104 
	C208.735596,172.431763 164.604965,233.689041 120.021011,295.494415 
M925.602051,304.105377 
	C957.242981,260.300659 989.002869,216.581207 1020.473572,172.654572 
	C1035.754761,151.325211 1033.896362,124.845894 1014.884583,106.799095 
	C991.776245,84.863747 963.821167,76.250275 932.199097,81.615967 
	C910.219971,85.345436 892.657593,96.288185 880.117737,115.170311 
	C872.582092,126.517296 864.249390,137.335449 856.261169,148.381332 
	C814.746704,205.786331 773.165649,263.143219 731.742798,320.614197 
	C716.133301,342.271149 718.161560,368.644318 737.216431,387.358429 
	C753.624390,403.472961 773.996765,412.046448 796.723755,413.401306 
	C826.962341,415.203949 852.614563,405.756409 870.853210,379.903381 
	C888.680786,354.633057 907.041382,329.738678 925.602051,304.105377 
M1216.500000,841.229492 
	C1196.341309,841.229309 1176.182617,841.241089 1156.023926,841.226562 
	C1109.039062,841.192749 1062.054321,841.136475 1015.069458,841.107666 
	C968.087280,841.078857 921.104797,841.152222 874.122986,841.012085 
	C858.158936,840.964478 851.021362,833.534790 851.008301,817.744141 
	C851.000427,808.245361 851.013916,798.746521 851.004456,789.247742 
	C850.997742,782.544250 846.230713,777.959656 839.389404,778.051331 
	C832.717590,778.140686 828.031128,782.681885 828.004456,789.210815 
	C827.962280,799.542664 827.995361,809.874756 827.992615,820.206787 
	C827.988525,835.794067 820.782288,842.407104 805.328613,841.009888 
	C797.281311,840.282349 790.694824,834.558899 790.097046,826.486389 
	C789.288086,815.560974 788.839600,804.556519 789.195618,793.617188 
	C789.400269,787.326050 783.264160,783.223083 777.757202,783.043762 
	C771.110413,782.827393 766.033875,787.468140 766.003845,793.755432 
	C765.961670,802.587463 766.111633,811.421753 765.966064,820.251587 
	C765.734253,834.309448 759.901062,842.438782 744.187134,841.116699 
	C735.734802,840.405518 728.888000,835.400696 728.136230,827.038757 
	C727.156616,816.141235 726.773560,805.117432 727.216736,794.191895 
	C727.479980,787.701660 721.232727,782.936157 715.264038,783.032104 
	C708.586304,783.139404 704.002930,787.683777 703.997681,794.220337 
	C703.984131,811.218201 704.461792,828.232605 703.860779,845.209167 
	C703.263855,862.069153 697.467224,873.073242 678.643982,877.118774 
	C669.280090,879.131287 659.988831,879.046753 650.558228,877.309265 
	C636.106262,874.646790 627.321533,866.452698 625.337280,851.854370 
	C624.513489,845.792969 625.023865,839.550293 624.925354,833.390076 
	C624.815308,826.508972 620.561096,822.133606 613.847473,821.993591 
	C605.918823,821.828125 601.396423,825.457947 601.255737,832.768738 
	C601.140930,838.734863 601.579285,844.723572 602.003418,850.685852 
	C603.484558,871.506775 614.677063,885.057617 633.951477,891.955933 
	C647.388794,896.765198 661.278442,897.639221 675.564575,896.156128 
	C700.073120,893.611633 720.456970,882.961487 726.444458,855.391785 
	C745.665344,862.280334 764.011047,862.740173 780.239929,847.682434 
	C788.566956,857.629395 799.614563,859.738220 811.368835,859.870789 
	C823.497803,860.007568 834.005493,855.970276 842.403687,847.109131 
	C853.607788,858.347412 864.736084,859.541748 877.752075,859.815369 
	C904.731018,860.382324 931.731567,859.889771 958.723206,859.893921 
	C1002.878174,859.900696 1047.033081,859.987366 1091.188110,859.983826 
	C1152.338501,859.978943 1213.489258,859.985352 1274.639160,859.804199 
	C1282.060425,859.782227 1289.620605,859.328857 1296.868652,857.856445 
	C1313.024536,854.574707 1325.414551,845.823303 1328.427002,828.840759 
	C1330.227905,818.688782 1329.395508,807.978943 1328.953369,797.553467 
	C1328.682251,791.161438 1323.659668,788.372925 1315.859009,788.965271 
	C1309.663330,789.435730 1306.085083,793.081238 1306.013672,799.220825 
	C1305.932373,806.218933 1305.997437,813.218811 1305.993530,820.217896 
	C1305.986328,833.348694 1299.013428,840.811707 1285.974243,840.954895 
	C1263.151123,841.205627 1240.324951,841.153381 1216.500000,841.229492 
M881.531433,577.881836 
	C885.872681,586.136597 891.993896,592.827148 899.459473,598.350464 
	C929.246643,620.387878 975.167908,619.309814 1003.586365,595.096375 
	C1030.162720,572.452576 1031.316040,538.417725 1004.182983,514.389526 
	C991.735779,503.366699 976.977417,497.873444 960.565186,495.839081 
	C939.642578,493.245544 920.156616,496.934326 902.547913,508.487396 
	C877.547119,524.890381 869.296875,552.082336 881.531433,577.881836 
M204.707535,866.185608 
	C217.030197,850.740723 211.664200,831.775024 192.804321,824.158813 
	C189.988251,823.021545 187.140137,821.963623 183.935547,820.725525 
	C186.744995,819.124023 189.088303,817.906494 191.312943,816.501038 
	C206.675720,806.795959 206.032928,786.817444 195.350983,777.652771 
	C185.852737,769.503784 174.792526,766.375305 162.887726,766.112732 
	C143.418747,765.683228 123.933388,765.990784 104.454933,765.998779 
	C95.182320,766.002563 91.041885,770.090088 91.038811,779.267639 
	C91.029144,808.069092 91.034477,836.870605 91.035530,865.672058 
	C91.035919,876.412781 95.565041,881.011230 106.462349,880.899719 
	C127.741776,880.682068 149.032043,880.651672 170.293457,879.876038 
	C182.912643,879.415710 194.755661,875.811707 204.707535,866.185608 
M299.969940,882.565857 
	C314.159668,883.304443 327.292480,880.359619 338.654480,871.214539 
	C340.556458,878.786621 346.055450,882.664612 353.273010,881.716309 
	C360.887451,880.716003 364.004150,876.842896 364.004486,868.377136 
	C364.005035,854.716125 364.023743,841.055115 363.999176,827.394165 
	C363.973541,813.119141 355.951508,802.000732 342.634857,796.868835 
	C329.143219,791.669617 315.177643,792.535034 301.315063,793.502380 
	C294.488220,793.978699 287.745087,796.215454 281.064758,798.027039 
	C276.852448,799.169312 274.142548,802.214050 274.420135,806.784424 
	C274.665405,810.822388 278.981018,813.973816 283.876678,813.951355 
	C286.494568,813.939331 289.102844,813.291992 291.727753,813.094116 
	C301.456909,812.360657 311.214172,810.915527 320.917725,811.201599 
	C332.932556,811.555847 340.006561,819.588806 338.701111,829.972900 
	C333.036194,829.203186 327.375122,828.351562 321.692902,827.678284 
	C307.976715,826.053223 294.462463,826.976196 281.674530,832.456665 
	C273.168976,836.101868 267.136749,842.348206 266.034973,852.069946 
	C264.850342,862.523071 268.576050,871.122009 278.055908,875.723389 
	C284.596619,878.898010 292.063599,880.164246 299.969940,882.565857 
M443.629791,843.911133 
	C450.813965,845.794067 458.073029,847.438354 465.151062,849.659607 
	C468.737549,850.785217 472.417725,852.562561 472.143951,857.507996 
	C471.864990,862.547852 468.223083,864.109497 464.185272,865.018616 
	C451.798553,867.807251 440.312347,864.573486 428.967651,859.828552 
	C425.408936,858.340088 421.437347,857.366943 417.598328,857.148132 
	C413.423828,856.910278 410.259705,859.552856 409.245148,863.618591 
	C408.267426,867.536865 410.558746,870.134949 413.965637,872.005981 
	C430.351837,881.005005 447.986053,883.954407 466.273132,881.563049 
	C472.778381,880.712402 479.547424,878.103394 485.112152,874.583496 
	C498.804016,865.922852 501.104065,845.068420 482.855713,836.555542 
	C477.191620,833.913208 471.172699,831.983276 465.219238,830.021729 
	C458.020172,827.649719 450.680359,825.705750 443.477295,823.345093 
	C440.134766,822.249634 436.902466,819.923767 438.231140,816.124573 
	C439.101746,813.635193 442.125458,810.391541 444.421997,810.190186 
	C451.389954,809.579224 458.538605,809.768250 465.489594,810.649597 
	C470.489960,811.283630 475.243591,813.685486 480.185364,815.006653 
	C485.780273,816.502441 491.630157,813.785583 492.989410,809.371216 
	C494.454895,804.611938 492.404846,801.006653 485.742432,799.025635 
	C477.228333,796.494141 468.559113,794.255676 459.804535,792.817139 
	C447.821106,790.847900 436.232361,793.019958 425.826813,799.398438 
	C418.453369,803.918213 414.016357,810.825012 414.349670,819.677429 
	C414.678192,828.402588 419.581726,834.559448 427.502045,838.024475 
	C432.487274,840.205505 437.711761,841.839661 443.629791,843.911133 
M1339.403198,886.601257 
	C1341.005859,881.683228 1338.973755,877.775757 1335.699463,874.431580 
	C1329.229858,867.823730 1316.678711,867.549927 1309.785889,873.707092 
	C1302.870117,879.884949 1303.081909,888.011597 1310.307983,893.737793 
	C1319.588623,901.092163 1333.725830,897.945129 1339.403198,886.601257 
M1022.526794,755.148132 
	C1015.443420,756.821960 1008.258789,758.177979 1001.343445,760.379639 
	C999.475586,760.974304 997.610168,763.999634 997.259460,766.155823 
	C996.988098,767.823914 998.646484,770.561646 1000.240723,771.575317 
	C1002.003540,772.696106 1004.819275,773.071594 1006.920898,772.609497 
	C1030.985840,767.317261 1055.010620,761.840210 1079.025879,756.324158 
	C1085.501709,754.836670 1088.465942,751.836060 1087.719727,748.042725 
	C1086.942993,744.093872 1083.145142,742.410339 1076.622925,743.120972 
	C1076.291870,743.157104 1075.949219,743.131409 1075.627808,743.204285 
	C1058.206787,747.155823 1040.787354,751.114929 1022.526794,755.148132 
z"/>
<path fill="#E16D6C" opacity="1.000000" stroke="none" 
	d="
M1277.171387,79.827942 
	C1300.331055,86.134865 1321.344482,95.120827 1333.471313,117.099152 
	C1343.397217,135.088272 1342.275635,153.162720 1330.460815,169.624832 
	C1281.655151,237.628159 1232.337280,305.263733 1183.493530,373.239960 
	C1174.918701,385.173676 1165.899658,396.248291 1152.375610,402.667450 
	C1125.179077,415.576263 1098.028687,415.003601 1070.879272,402.266510 
	C1058.020020,396.233643 1046.611206,388.639221 1038.743774,376.402679 
	C1027.100342,358.293213 1026.870361,338.008545 1039.269043,320.392609 
	C1056.860229,295.399048 1074.925903,270.738922 1092.824585,245.962280 
	C1116.945435,212.572525 1141.089966,179.199890 1165.245972,145.835602 
	C1174.693115,132.787125 1184.065918,119.681717 1193.712158,106.781349 
	C1205.808472,90.604485 1222.651245,81.841423 1242.153564,79.317619 
	C1253.483887,77.851372 1265.214233,79.477440 1277.171387,79.827942 
z"/>
<path fill="#1A1A1A" opacity="1.000000" stroke="none" 
	d="
M678.776245,209.774017 
	C640.299255,263.041656 602.068298,316.046326 563.651550,368.916046 
	C557.221680,377.764923 551.197083,387.509979 542.900879,394.290741 
	C515.534241,416.658203 484.727417,419.088593 452.351044,406.352081 
	C441.153046,401.946869 430.697296,396.245972 422.136841,387.470703 
	C403.479218,368.345001 401.132690,342.277924 416.743225,320.626251 
	C467.412109,250.348755 517.961365,179.982025 569.133667,110.072044 
	C586.976318,85.695999 613.138489,78.167923 642.057373,80.545433 
	C664.333069,82.376801 684.332520,90.959251 700.320374,107.062500 
	C718.486572,125.359764 720.554260,151.175323 705.827820,172.272919 
	C697.075073,184.812424 687.929016,197.077362 678.776245,209.774017 
z"/>
<path fill="#1A1A1A" opacity="1.000000" stroke="none" 
	d="
M120.190445,295.178711 
	C164.604965,233.689041 208.735596,172.431763 253.150238,111.381104 
	C271.494263,86.166138 297.730377,78.157013 327.416382,80.579025 
	C348.984100,82.338684 368.455719,90.632317 384.161957,105.901039 
	C403.821777,125.013222 406.032288,151.020081 390.014771,173.319748 
	C353.829865,223.696655 317.411804,273.906158 281.075836,324.174500 
	C267.730438,342.636902 253.966843,360.811066 241.081512,379.588440 
	C225.186691,402.751434 202.627533,412.618286 175.613495,413.701416 
	C152.614365,414.623535 131.922653,406.958008 113.827225,393.287079 
	C90.101974,375.362885 83.434792,345.112885 102.401573,319.688904 
	C108.366844,311.692780 114.152908,303.563019 120.190445,295.178711 
z"/>
<path fill="#1A1A1A" opacity="1.000000" stroke="none" 
	d="
M925.385010,304.392334 
	C907.041382,329.738678 888.680786,354.633057 870.853210,379.903381 
	C852.614563,405.756409 826.962341,415.203949 796.723755,413.401306 
	C773.996765,412.046448 753.624390,403.472961 737.216431,387.358429 
	C718.161560,368.644318 716.133301,342.271149 731.742798,320.614197 
	C773.165649,263.143219 814.746704,205.786331 856.261169,148.381332 
	C864.249390,137.335449 872.582092,126.517296 880.117737,115.170311 
	C892.657593,96.288185 910.219971,85.345436 932.199097,81.615967 
	C963.821167,76.250275 991.776245,84.863747 1014.884583,106.799095 
	C1033.896362,124.845894 1035.754761,151.325211 1020.473572,172.654572 
	C989.002869,216.581207 957.242981,260.300659 925.385010,304.392334 
z"/>
<path fill="#E06F6E" opacity="1.000000" stroke="none" 
	d="
M1217.000000,841.228760 
	C1240.324951,841.153381 1263.151123,841.205627 1285.974243,840.954895 
	C1299.013428,840.811707 1305.986328,833.348694 1305.993530,820.217896 
	C1305.997437,813.218811 1305.932373,806.218933 1306.013672,799.220825 
	C1306.085083,793.081238 1309.663330,789.435730 1315.859009,788.965271 
	C1323.659668,788.372925 1328.682251,791.161438 1328.953369,797.553467 
	C1329.395508,807.978943 1330.227905,818.688782 1328.427002,828.840759 
	C1325.414551,845.823303 1313.024536,854.574707 1296.868652,857.856445 
	C1289.620605,859.328857 1282.060425,859.782227 1274.639160,859.804199 
	C1213.489258,859.985352 1152.338501,859.978943 1091.188110,859.983826 
	C1047.033081,859.987366 1002.878174,859.900696 958.723206,859.893921 
	C931.731567,859.889771 904.731018,860.382324 877.752075,859.815369 
	C864.736084,859.541748 853.607788,858.347412 842.403687,847.109131 
	C834.005493,855.970276 823.497803,860.007568 811.368835,859.870789 
	C799.614563,859.738220 788.566956,857.629395 780.239929,847.682434 
	C764.011047,862.740173 745.665344,862.280334 726.444458,855.391785 
	C720.456970,882.961487 700.073120,893.611633 675.564575,896.156128 
	C661.278442,897.639221 647.388794,896.765198 633.951477,891.955933 
	C614.677063,885.057617 603.484558,871.506775 602.003418,850.685852 
	C601.579285,844.723572 601.140930,838.734863 601.255737,832.768738 
	C601.396423,825.457947 605.918823,821.828125 613.847473,821.993591 
	C620.561096,822.133606 624.815308,826.508972 624.925354,833.390076 
	C625.023865,839.550293 624.513489,845.792969 625.337280,851.854370 
	C627.321533,866.452698 636.106262,874.646790 650.558228,877.309265 
	C659.988831,879.046753 669.280090,879.131287 678.643982,877.118774 
	C697.467224,873.073242 703.263855,862.069153 703.860779,845.209167 
	C704.461792,828.232605 703.984131,811.218201 703.997681,794.220337 
	C704.002930,787.683777 708.586304,783.139404 715.264038,783.032104 
	C721.232727,782.936157 727.479980,787.701660 727.216736,794.191895 
	C726.773560,805.117432 727.156616,816.141235 728.136230,827.038757 
	C728.888000,835.400696 735.734802,840.405518 744.187134,841.116699 
	C759.901062,842.438782 765.734253,834.309448 765.966064,820.251587 
	C766.111633,811.421753 765.961670,802.587463 766.003845,793.755432 
	C766.033875,787.468140 771.110413,782.827393 777.757202,783.043762 
	C783.264160,783.223083 789.400269,787.326050 789.195618,793.617188 
	C788.839600,804.556519 789.288086,815.560974 790.097046,826.486389 
	C790.694824,834.558899 797.281311,840.282349 805.328613,841.009888 
	C820.782288,842.407104 827.988525,835.794067 827.992615,820.206787 
	C827.995361,809.874756 827.962280,799.542664 828.004456,789.210815 
	C828.031128,782.681885 832.717590,778.140686 839.389404,778.051331 
	C846.230713,777.959656 850.997742,782.544250 851.004456,789.247742 
	C851.013916,798.746521 851.000427,808.245361 851.008301,817.744141 
	C851.021362,833.534790 858.158936,840.964478 874.122986,841.012085 
	C921.104797,841.152222 968.087280,841.078857 1015.069458,841.107666 
	C1062.054321,841.136475 1109.039062,841.192749 1156.023926,841.226562 
	C1176.182617,841.241089 1196.341309,841.229309 1217.000000,841.228760 
z"/>
<path fill="#E16D6C" opacity="1.000000" stroke="none" 
	d="
M881.340332,577.559204 
	C869.296875,552.082336 877.547119,524.890381 902.547913,508.487396 
	C920.156616,496.934326 939.642578,493.245544 960.565186,495.839081 
	C976.977417,497.873444 991.735779,503.366699 1004.182983,514.389526 
	C1031.316040,538.417725 1030.162720,572.452576 1003.586365,595.096375 
	C975.167908,619.309814 929.246643,620.387878 899.459473,598.350464 
	C891.993896,592.827148 885.872681,586.136597 881.340332,577.559204 
z"/>
<path fill="#E16E6D" opacity="1.000000" stroke="none" 
	d="
M204.485687,866.465698 
	C194.755661,875.811707 182.912643,879.415710 170.293457,879.876038 
	C149.032043,880.651672 127.741776,880.682068 106.462349,880.899719 
	C95.565041,881.011230 91.035919,876.412781 91.035530,865.672058 
	C91.034477,836.870605 91.029144,808.069092 91.038811,779.267639 
	C91.041885,770.090088 95.182320,766.002563 104.454933,765.998779 
	C123.933388,765.990784 143.418747,765.683228 162.887726,766.112732 
	C174.792526,766.375305 185.852737,769.503784 195.350983,777.652771 
	C206.032928,786.817444 206.675720,806.795959 191.312943,816.501038 
	C189.088303,817.906494 186.744995,819.124023 183.935547,820.725525 
	C187.140137,821.963623 189.988251,823.021545 192.804321,824.158813 
	C211.664200,831.775024 217.030197,850.740723 204.485687,866.465698 
M127.539543,862.189209 
	C140.018356,862.119263 152.512817,862.385376 164.967850,861.804871 
	C169.598907,861.589111 174.329361,859.835632 178.661880,857.966187 
	C182.616318,856.259888 184.977890,852.819275 185.187256,848.136475 
	C185.536835,840.317383 181.306015,834.195190 171.640076,833.336792 
	C154.310074,831.797729 136.840912,831.785034 119.424179,831.384460 
	C118.560730,831.364624 116.933838,833.685425 116.871803,834.974548 
	C116.592178,840.785156 116.766769,846.616882 116.744301,852.440857 
	C116.706657,862.195190 116.695969,862.195129 127.539543,862.189209 
M136.500351,813.973938 
	C141.489044,813.973633 146.509369,814.324341 151.457870,813.878174 
	C156.847122,813.392395 162.375244,812.792480 167.472794,811.116638 
	C174.970764,808.651733 177.446381,804.616760 177.205719,797.897217 
	C177.006927,792.346863 173.567551,788.127258 166.786285,786.139587 
	C162.859863,784.988708 158.690384,784.204041 154.612381,784.119812 
	C142.192703,783.863159 129.764359,784.026672 117.179733,784.026672 
	C117.179733,794.281738 117.179733,803.942688 117.179733,813.974121 
	C123.574173,813.974121 129.537369,813.974121 136.500351,813.973938 
z"/>
<path fill="#E16F6E" opacity="1.000000" stroke="none" 
	d="
M299.543304,882.424561 
	C292.063599,880.164246 284.596619,878.898010 278.055908,875.723389 
	C268.576050,871.122009 264.850342,862.523071 266.034973,852.069946 
	C267.136749,842.348206 273.168976,836.101868 281.674530,832.456665 
	C294.462463,826.976196 307.976715,826.053223 321.692902,827.678284 
	C327.375122,828.351562 333.036194,829.203186 338.701111,829.972900 
	C340.006561,819.588806 332.932556,811.555847 320.917725,811.201599 
	C311.214172,810.915527 301.456909,812.360657 291.727753,813.094116 
	C289.102844,813.291992 286.494568,813.939331 283.876678,813.951355 
	C278.981018,813.973816 274.665405,810.822388 274.420135,806.784424 
	C274.142548,802.214050 276.852448,799.169312 281.064758,798.027039 
	C287.745087,796.215454 294.488220,793.978699 301.315063,793.502380 
	C315.177643,792.535034 329.143219,791.669617 342.634857,796.868835 
	C355.951508,802.000732 363.973541,813.119141 363.999176,827.394165 
	C364.023743,841.055115 364.005035,854.716125 364.004486,868.377136 
	C364.004150,876.842896 360.887451,880.716003 353.273010,881.716309 
	C346.055450,882.664612 340.556458,878.786621 338.654480,871.214539 
	C327.292480,880.359619 314.159668,883.304443 299.543304,882.424561 
M297.127808,864.550842 
	C308.175140,869.520813 319.089874,868.367065 329.794434,863.566711 
	C334.484985,861.463257 338.037231,858.043640 339.510742,852.856506 
	C341.573029,845.596741 340.179840,843.306213 332.883484,842.049866 
	C331.906738,841.881653 330.950836,841.580505 329.970917,841.444336 
	C319.566864,839.998657 309.158234,839.099243 299.106079,843.198792 
	C294.788300,844.959778 291.432770,847.783203 290.896881,852.923828 
	C290.379425,857.887085 291.970276,861.724792 297.127808,864.550842 
z"/>
<path fill="#E16F6E" opacity="1.000000" stroke="none" 
	d="
M443.229370,843.815125 
	C437.711761,841.839661 432.487274,840.205505 427.502045,838.024475 
	C419.581726,834.559448 414.678192,828.402588 414.349670,819.677429 
	C414.016357,810.825012 418.453369,803.918213 425.826813,799.398438 
	C436.232361,793.019958 447.821106,790.847900 459.804535,792.817139 
	C468.559113,794.255676 477.228333,796.494141 485.742432,799.025635 
	C492.404846,801.006653 494.454895,804.611938 492.989410,809.371216 
	C491.630157,813.785583 485.780273,816.502441 480.185364,815.006653 
	C475.243591,813.685486 470.489960,811.283630 465.489594,810.649597 
	C458.538605,809.768250 451.389954,809.579224 444.421997,810.190186 
	C442.125458,810.391541 439.101746,813.635193 438.231140,816.124573 
	C436.902466,819.923767 440.134766,822.249634 443.477295,823.345093 
	C450.680359,825.705750 458.020172,827.649719 465.219238,830.021729 
	C471.172699,831.983276 477.191620,833.913208 482.855713,836.555542 
	C501.104065,845.068420 498.804016,865.922852 485.112152,874.583496 
	C479.547424,878.103394 472.778381,880.712402 466.273132,881.563049 
	C447.986053,883.954407 430.351837,881.005005 413.965637,872.005981 
	C410.558746,870.134949 408.267426,867.536865 409.245148,863.618591 
	C410.259705,859.552856 413.423828,856.910278 417.598328,857.148132 
	C421.437347,857.366943 425.408936,858.340088 428.967651,859.828552 
	C440.312347,864.573486 451.798553,867.807251 464.185272,865.018616 
	C468.223083,864.109497 471.864990,862.547852 472.143951,857.507996 
	C472.417725,852.562561 468.737549,850.785217 465.151062,849.659607 
	C458.073029,847.438354 450.813965,845.794067 443.229370,843.815125 
z"/>
<path fill="#E06F6E" opacity="1.000000" stroke="none" 
	d="
M1339.253662,886.964355 
	C1333.725830,897.945129 1319.588623,901.092163 1310.307983,893.737793 
	C1303.081909,888.011597 1302.870117,879.884949 1309.785889,873.707092 
	C1316.678711,867.549927 1329.229858,867.823730 1335.699463,874.431580 
	C1338.973755,877.775757 1341.005859,881.683228 1339.253662,886.964355 
z"/>
<path fill="#D89292" opacity="1.000000" stroke="none" 
	d="
M1022.947266,755.110718 
	C1040.787354,751.114929 1058.206787,747.155823 1075.627808,743.204285 
	C1075.949219,743.131409 1076.291870,743.157104 1076.622925,743.120972 
	C1083.145142,742.410339 1086.942993,744.093872 1087.719727,748.042725 
	C1088.465942,751.836060 1085.501709,754.836670 1079.025879,756.324158 
	C1055.010620,761.840210 1030.985840,767.317261 1006.920898,772.609497 
	C1004.819275,773.071594 1002.003540,772.696106 1000.240723,771.575317 
	C998.646484,770.561646 996.988098,767.823914 997.259460,766.155823 
	C997.610168,763.999634 999.475586,760.974304 1001.343445,760.379639 
	C1008.258789,758.177979 1015.443420,756.821960 1022.947266,755.110718 
M1082.438721,753.303467 
	C1083.337769,751.614868 1085.318726,749.507507 1084.867310,748.341858 
	C1084.278320,746.820190 1081.743530,745.101929 1080.080322,745.136292 
	C1076.162109,745.217163 1072.229004,746.126953 1068.364258,746.983093 
	C1047.028076,751.709595 1025.702881,756.485718 1004.396790,761.345642 
	C1001.668579,761.967957 998.192566,762.931824 999.203857,766.677673 
	C1000.198364,770.361694 1003.276184,771.421814 1007.150330,770.535339 
	C1032.003784,764.848206 1056.880493,759.263306 1082.438721,753.303467 
z"/>
<path fill="#E4E3E3" opacity="0.000000" stroke="none" 
	d="
M127.048676,862.189331 
	C116.695969,862.195129 116.706657,862.195190 116.744301,852.440857 
	C116.766769,846.616882 116.592178,840.785156 116.871803,834.974548 
	C116.933838,833.685425 118.560730,831.364624 119.424179,831.384460 
	C136.840912,831.785034 154.310074,831.797729 171.640076,833.336792 
	C181.306015,834.195190 185.536835,840.317383 185.187256,848.136475 
	C184.977890,852.819275 182.616318,856.259888 178.661880,857.966187 
	C174.329361,859.835632 169.598907,861.589111 164.967850,861.804871 
	C152.512817,862.385376 140.018356,862.119263 127.048676,862.189331 
z"/>
<path fill="#E4E4E4" opacity="0.000000" stroke="none" 
	d="
M136.000458,813.973999 
	C129.537369,813.974121 123.574173,813.974121 117.179733,813.974121 
	C117.179733,803.942688 117.179733,794.281738 117.179733,784.026672 
	C129.764359,784.026672 142.192703,783.863159 154.612381,784.119812 
	C158.690384,784.204041 162.859863,784.988708 166.786285,786.139587 
	C173.567551,788.127258 177.006927,792.346863 177.205719,797.897217 
	C177.446381,804.616760 174.970764,808.651733 167.472794,811.116638 
	C162.375244,812.792480 156.847122,813.392395 151.457870,813.878174 
	C146.509369,814.324341 141.489044,813.973633 136.000458,813.973999 
z"/>
<path fill="#E4E2E2" opacity="0.000000" stroke="none" 
	d="
M296.807617,864.346497 
	C291.970276,861.724792 290.379425,857.887085 290.896881,852.923828 
	C291.432770,847.783203 294.788300,844.959778 299.106079,843.198792 
	C309.158234,839.099243 319.566864,839.998657 329.970917,841.444336 
	C330.950836,841.580505 331.906738,841.881653 332.883484,842.049866 
	C340.179840,843.306213 341.573029,845.596741 339.510742,852.856506 
	C338.037231,858.043640 334.484985,861.463257 329.794434,863.566711 
	C319.089874,868.367065 308.175140,869.520813 296.807617,864.346497 
z"/>
<path fill="#E16D6C" opacity="1.000000" stroke="none" 
	d="
M1082.094238,753.474121 
	C1056.880493,759.263306 1032.003784,764.848206 1007.150330,770.535339 
	C1003.276184,771.421814 1000.198364,770.361694 999.203857,766.677673 
	C998.192566,762.931824 1001.668579,761.967957 1004.396790,761.345642 
	C1025.702881,756.485718 1047.028076,751.709595 1068.364258,746.983093 
	C1072.229004,746.126953 1076.162109,745.217163 1080.080322,745.136292 
	C1081.743530,745.101929 1084.278320,746.820190 1084.867310,748.341858 
	C1085.318726,749.507507 1083.337769,751.614868 1082.094238,753.474121 
z"/>
</svg>